<svg width="402" height="874" viewBox="0 0 402 874" fill="none" xmlns="http://www.w3.org/2000/svg">
<g clip-path="url(#clip0_45_9823)">
<rect width="402" height="874" rx="44" fill="#F3F2F7"/>
<rect width="402" height="874" fill="#EC7676"/>
<path d="M121.003 414.8L124.523 447.2C124.523 447.2 131.883 447.92 130.923 431.28C129.963 414.64 125.243 414.16 121.003 414.8ZM112.443 448.8C111.483 436.32 110.283 419.2 109.963 416.72C109.643 414.24 110.603 413.52 110.603 413.52C110.603 413.52 109.483 412.56 109.483 411.6C109.483 408.16 119.723 407.6 119.723 407.6C119.723 407.6 141.643 404.48 143.243 427.44C145.083 454.72 126.443 454 118.923 454C111.403 454 112.443 448.8 112.443 448.8ZM154.179 420.32C154.179 420.32 159.779 420.88 160.179 415.28C160.579 409.52 154.979 408.64 153.619 408.8C152.259 408.96 146.739 408.24 146.979 414.56C147.219 420.88 154.179 420.32 154.179 420.32ZM151.379 449.04L149.459 430.8C149.459 430.8 148.819 429.2 148.579 428.8C148.339 428.4 147.139 425.68 151.379 424.88C155.619 424.08 161.379 424.32 162.179 430.32C162.979 436.32 164.099 448.48 164.099 448.48C164.099 448.48 165.619 454 158.419 454C151.219 454 151.379 449.04 151.379 449.04ZM180.225 436.56C193.185 435.6 192.225 425.52 186.065 425.84C179.905 426.16 180.225 436.56 180.225 436.56ZM200.625 429.84C199.905 443.2 181.345 442.08 181.345 442.08C182.865 451.44 188.865 445.92 188.865 445.92C188.865 445.92 191.425 443.12 197.265 443.12C205.985 443.12 201.905 448.64 201.905 448.64C201.905 448.64 198.865 453.76 185.905 454C170.225 454.32 167.585 440.64 167.585 436.64C167.585 432.64 168.225 421.2 184.145 421.04C200.065 420.88 200.705 428.32 200.625 429.84ZM207.061 410.32C206.981 407.68 208.021 405.92 213.941 405.6C219.861 405.28 220.341 409.04 220.341 409.04L220.821 416.16C220.821 416.16 229.461 415.6 229.541 420C229.621 424.4 220.981 423.84 220.981 423.84C220.981 423.84 221.301 448.48 221.301 449.6C221.301 450.72 220.981 454 214.261 454C207.541 454 207.701 450.08 207.701 450.08L207.061 410.32ZM233.154 410.32C233.074 407.68 234.114 405.92 240.034 405.6C245.954 405.28 246.434 409.04 246.434 409.04L246.914 416.16C246.914 416.16 255.554 415.6 255.634 420C255.714 424.4 247.074 423.84 247.074 423.84C247.074 423.84 247.394 448.48 247.394 449.6C247.394 450.72 247.074 454 240.354 454C233.634 454 233.794 450.08 233.794 450.08L233.154 410.32ZM276.368 429.36C276.368 429.36 272.368 433.52 272.368 439.68C272.368 445.84 275.008 447.76 275.968 447.76C276.928 447.84 280.448 447.12 280.288 440.24C280.128 434.56 278.528 432.72 276.368 429.36ZM276.048 421.52C279.968 421.2 282.048 422.96 282.528 423.2C283.568 423.76 284.688 424.56 284.688 424.56C284.688 424.56 292.528 425.6 293.248 439.92C293.968 454.24 274.528 454 274.528 454C274.528 454 258.928 455.6 259.408 438.72C259.888 421.84 276.048 421.52 276.048 421.52Z" fill="white"/>
<path d="M136.043 470.766V473.742H132.105C132.305 475.898 133.559 478.137 136.934 479.18L135.035 482.086C132.715 481.359 131.156 479.965 130.207 478.219C129.246 480.129 127.629 481.652 125.168 482.414L123.199 479.531C126.68 478.477 127.98 476.051 128.238 473.742H124.184V470.766H136.043ZM141.012 469.641V474.609H143.707V477.703H141.012V482.742H137.238V469.641H141.012ZM141.012 483.516V491.32H137.238V486.492H126.176V483.516H141.012ZM164.191 480.516V483.469H144.41V480.516H164.191ZM161.895 488.016V491.016H146.684V484.641H150.457V488.016H161.895ZM154.301 470.25C159.082 470.25 162.293 471.984 162.316 474.773C162.293 477.609 159.082 479.367 154.301 479.367C149.473 479.367 146.238 477.609 146.262 474.773C146.238 471.984 149.473 470.25 154.301 470.25ZM154.301 473.203C151.582 473.227 150.152 473.719 150.176 474.773C150.152 475.898 151.582 476.344 154.301 476.32C156.973 476.344 158.426 475.898 158.426 474.773C158.426 473.719 156.973 473.227 154.301 473.203ZM188.824 469.688V485.625H185.074V480.68H181.816V482.391H171.199V471.094H174.973V474.07H178.113V471.094H181.816V473.062H185.074V469.688H188.824ZM189.27 488.016V491.016H174.129V484.031H177.949V488.016H189.27ZM174.973 479.484H178.113V476.906H174.973V479.484ZM181.816 477.703H185.074V476.062H181.816V477.703ZM208.77 469.641V478.195H211.207V481.289H208.77V491.32H204.973V469.641H208.77ZM190.887 484.992C192.34 484.992 194.027 484.992 195.809 484.969V483.422C193.652 482.895 192.27 481.43 192.27 479.531C192.27 477.117 194.52 475.43 197.73 475.43C200.871 475.43 203.168 477.117 203.168 479.531C203.168 481.441 201.738 482.906 199.582 483.422V484.828C201.105 484.746 202.629 484.617 204.059 484.43L204.316 487.125C199.77 488.016 194.895 488.016 191.332 488.016L190.887 484.992ZM204.035 471.914V474.844H191.309V471.914H195.809V469.828H199.582V471.914H204.035ZM197.73 478.242C196.582 478.266 195.832 478.664 195.855 479.531C195.832 480.445 196.582 480.82 197.73 480.82C198.832 480.82 199.559 480.445 199.559 479.531C199.559 478.664 198.832 478.266 197.73 478.242ZM218.824 471.023C222.293 471 224.941 473.32 224.941 476.484C224.941 479.672 222.293 481.969 218.824 481.945C215.426 481.969 212.707 479.672 212.707 476.484C212.707 473.32 215.426 471 218.824 471.023ZM218.824 474.258C217.512 474.258 216.457 475.008 216.457 476.484C216.457 478.008 217.512 478.711 218.824 478.711C220.207 478.711 221.285 478.008 221.285 476.484C221.285 475.008 220.207 474.258 218.824 474.258ZM230.332 469.641V491.391H226.605V469.641H230.332ZM211.934 484.172C215.707 484.172 220.98 484.102 225.504 483.492L225.785 486.188C221.098 487.125 216.059 487.172 212.355 487.172L211.934 484.172ZM246.738 473.977C246.715 477.984 247.957 481.969 251.965 483.586L249.785 486.609C247.383 485.555 245.824 483.691 244.887 481.336C243.938 483.973 242.297 486.07 239.684 487.195L237.434 484.078C241.582 482.414 242.895 478.242 242.918 473.977V471.188H246.738V473.977ZM256.137 469.641V491.391H252.34V469.641H256.137ZM270.949 470.766V473.742H267.012C267.211 475.898 268.465 478.137 271.84 479.18L269.941 482.086C267.621 481.359 266.062 479.965 265.113 478.219C264.152 480.129 262.535 481.652 260.074 482.414L258.105 479.531C261.586 478.477 262.887 476.051 263.145 473.742H259.09V470.766H270.949ZM275.918 469.641V474.609H278.613V477.703H275.918V482.742H272.145V469.641H275.918ZM275.918 483.516V491.32H272.145V486.492H261.082V483.516H275.918Z" fill="white"/>
</g>
<defs>
<clipPath id="clip0_45_9823">
<rect width="402" height="874" rx="44" fill="white"/>
</clipPath>
</defs>
</svg>
